<?xml version="1.0" standalone="no"?>
<!DOCTYPE svg PUBLIC "-//W3C//DTD SVG 20010904//EN"
 "http://www.w3.org/TR/2001/REC-SVG-20010904/DTD/svg10.dtd">
<svg version="1.0" xmlns="http://www.w3.org/2000/svg"
 width="512.000000pt" height="512.000000pt" viewBox="0 0 512.000000 512.000000"
 preserveAspectRatio="xMidYMid meet">
<metadata>
Created by potrace 1.11, written by Peter Selinger 2001-2013
</metadata>
<g transform="translate(0.000000,512.000000) scale(0.100000,-0.100000)"
fill="#000000" stroke="none">
<path d="M2070 4970 l0 -50 -150 0 -150 0 0 -50 0 -50 -145 0 -145 0 0 -45 0
-45 -100 0 -100 0 0 -50 0 -50 -100 0 -100 0 0 -50 0 -50 -45 0 -45 0 0 -50 0
-50 -50 0 -50 0 0 -100 0 -100 -100 0 -100 0 0 -50 0 -50 -50 0 -50 0 0 -45 0
-45 -50 0 -50 0 0 -100 0 -100 -50 0 -50 0 0 -100 0 -100 -45 0 -45 0 0 -145
0 -145 -50 0 -50 0 0 -150 0 -150 -50 0 -50 0 0 -195 0 -195 50 0 50 0 0 -50
0 -50 -50 0 -50 0 0 -245 0 -245 50 0 50 0 0 -150 0 -150 50 0 50 0 0 -145 0
-145 45 0 45 0 0 -100 0 -100 50 0 50 0 0 -100 0 -100 50 0 50 0 0 -50 0 -50
50 0 50 0 0 -45 0 -45 100 0 100 0 0 -100 0 -100 50 0 50 0 0 -50 0 -50 45 0
45 0 0 -50 0 -50 100 0 100 0 0 -50 0 -50 100 0 100 0 0 -50 0 -50 145 0 145
0 0 -45 0 -45 150 0 150 0 0 -50 0 -50 195 0 195 0 0 50 0 50 50 0 50 0 0 -50
0 -50 245 0 245 0 0 50 0 50 150 0 150 0 0 45 0 45 145 0 145 0 0 50 0 50 100
0 100 0 0 50 0 50 100 0 100 0 0 50 0 50 50 0 50 0 0 50 0 50 45 0 45 0 0 100
0 100 100 0 100 0 0 45 0 45 50 0 50 0 0 50 0 50 50 0 50 0 0 100 0 100 50 0
50 0 0 100 0 100 50 0 50 0 0 145 0 145 45 0 45 0 0 150 0 150 50 0 50 0 0
195 0 195 -50 0 -50 0 0 50 0 50 50 0 50 0 0 245 0 245 -50 0 -50 0 0 150 0
150 -45 0 -45 0 0 145 0 145 -50 0 -50 0 0 100 0 100 -50 0 -50 0 0 100 0 100
-50 0 -50 0 0 45 0 45 -50 0 -50 0 0 50 0 50 -100 0 -100 0 0 100 0 100 -45 0
-45 0 0 50 0 50 -50 0 -50 0 0 50 0 50 -100 0 -100 0 0 50 0 50 -100 0 -100 0
0 45 0 45 -145 0 -145 0 0 50 0 50 -150 0 -150 0 0 50 0 50 -195 0 -195 0 0
-50 0 -50 -50 0 -50 0 0 50 0 50 -245 0 -245 0 0 -50z m490 -145 l0 -95 50 0
50 0 0 -50 0 -50 50 0 50 0 0 -50 0 -50 50 0 50 0 0 -200 0 -200 -50 0 -50 0
0 -45 0 -45 -50 0 -50 0 0 -150 0 -150 50 0 50 0 0 -50 0 -50 50 0 50 0 0 -50
0 -50 95 0 95 0 0 -45 0 -45 50 0 50 0 0 45 0 45 100 0 100 0 0 50 0 50 50 0
50 0 0 50 0 50 50 0 50 0 0 50 0 50 95 0 95 0 0 50 0 50 50 0 50 0 0 50 0 50
100 0 100 0 0 45 0 45 50 0 50 0 0 50 0 50 45 0 45 0 0 -50 0 -50 -45 0 -45 0
0 -45 0 -45 -50 0 -50 0 0 -100 0 -100 -50 0 -50 0 0 -50 0 -50 -50 0 -50 0 0
-100 0 -100 -50 0 -50 0 0 -45 0 -45 -50 0 -50 0 0 -50 0 -50 -45 0 -45 0 0
-100 0 -100 -50 0 -50 0 0 -50 0 -50 50 0 50 0 0 -100 0 -100 45 0 45 0 0 -95
0 -95 50 0 50 0 0 50 0 50 200 0 200 0 0 -50 0 -50 45 0 45 0 0 -50 0 -50 50
0 50 0 0 -50 0 -50 100 0 100 0 0 50 0 50 100 0 100 0 0 50 0 50 95 0 95 0 0
-50 0 -50 -95 0 -95 0 0 -50 0 -50 -50 0 -50 0 0 -50 0 -50 -50 0 -50 0 0 -50
0 -50 -195 0 -195 0 0 50 0 50 -50 0 -50 0 0 50 0 50 -150 0 -150 0 0 -50 0
-50 -50 0 -50 0 0 -50 0 -50 -45 0 -45 0 0 -95 0 -95 -50 0 -50 0 0 -50 0 -50
50 0 50 0 0 -100 0 -100 45 0 45 0 0 -50 0 -50 50 0 50 0 0 -50 0 -50 50 0 50
0 0 -95 0 -95 50 0 50 0 0 -50 0 -50 50 0 50 0 0 -100 0 -100 50 0 50 0 0 -50
0 -50 45 0 45 0 0 -45 0 -45 -45 0 -45 0 0 45 0 45 -50 0 -50 0 0 50 0 50
-100 0 -100 0 0 50 0 50 -50 0 -50 0 0 50 0 50 -95 0 -95 0 0 50 0 50 -50 0
-50 0 0 50 0 50 -50 0 -50 0 0 45 0 45 -100 0 -100 0 0 50 0 50 -50 0 -50 0 0
-50 0 -50 -95 0 -95 0 0 -45 0 -45 -100 0 -100 0 0 -50 0 -50 50 0 50 0 0
-200 0 -200 -50 0 -50 0 0 -45 0 -45 -50 0 -50 0 0 -50 0 -50 -50 0 -50 0 0
-100 0 -100 50 0 50 0 0 -100 0 -100 50 0 50 0 0 -95 0 -95 -50 0 -50 0 0 95
0 95 -50 0 -50 0 0 50 0 50 -50 0 -50 0 0 50 0 50 -45 0 -45 0 0 195 0 195 45
0 45 0 0 50 0 50 50 0 50 0 0 150 0 150 -50 0 -50 0 0 50 0 50 -45 0 -45 0 0
45 0 45 -100 0 -100 0 0 50 0 50 -50 0 -50 0 0 -50 0 -50 -100 0 -100 0 0 -45
0 -45 -50 0 -50 0 0 -50 0 -50 -45 0 -45 0 0 -50 0 -50 -100 0 -100 0 0 -50 0
-50 -50 0 -50 0 0 -50 0 -50 -100 0 -100 0 0 -50 0 -50 -45 0 -45 0 0 -45 0
-45 -50 0 -50 0 0 45 0 45 50 0 50 0 0 50 0 50 45 0 45 0 0 100 0 100 50 0 50
0 0 50 0 50 50 0 50 0 0 95 0 95 50 0 50 0 0 50 0 50 50 0 50 0 0 50 0 50 50
0 50 0 0 100 0 100 45 0 45 0 0 50 0 50 -45 0 -45 0 0 95 0 95 -50 0 -50 0 0
100 0 100 -50 0 -50 0 0 -50 0 -50 -195 0 -195 0 0 50 0 50 -50 0 -50 0 0 50
0 50 -50 0 -50 0 0 50 0 50 -100 0 -100 0 0 -50 0 -50 -100 0 -100 0 0 -50 0
-50 -95 0 -95 0 0 50 0 50 95 0 95 0 0 50 0 50 50 0 50 0 0 50 0 50 50 0 50 0
0 45 0 45 200 0 200 0 0 -45 0 -45 45 0 45 0 0 -50 0 -50 150 0 150 0 0 50 0
50 50 0 50 0 0 45 0 45 50 0 50 0 0 100 0 100 45 0 45 0 0 50 0 50 -45 0 -45
0 0 100 0 100 -50 0 -50 0 0 50 0 50 -50 0 -50 0 0 45 0 45 -50 0 -50 0 0 100
0 100 -50 0 -50 0 0 50 0 50 -50 0 -50 0 0 100 0 100 -45 0 -45 0 0 45 0 45
-50 0 -50 0 0 50 0 50 50 0 50 0 0 -50 0 -50 45 0 45 0 0 -45 0 -45 100 0 100
0 0 -50 0 -50 50 0 50 0 0 -50 0 -50 100 0 100 0 0 -50 0 -50 45 0 45 0 0 -50
0 -50 50 0 50 0 0 -50 0 -50 100 0 100 0 0 -45 0 -45 50 0 50 0 0 45 0 45 100
0 100 0 0 50 0 50 95 0 95 0 0 50 0 50 -50 0 -50 0 0 195 0 195 50 0 50 0 0
50 0 50 50 0 50 0 0 50 0 50 50 0 50 0 0 100 0 100 -50 0 -50 0 0 100 0 100
-50 0 -50 0 0 95 0 95 50 0 50 0 0 -95z m-490 -100 l0 -95 50 0 50 0 0 -50 0
-50 95 0 95 0 0 -50 0 -50 -95 0 -95 0 0 -50 0 -50 -50 0 -50 0 0 -100 0 -100
-50 0 -50 0 0 100 0 100 -50 0 -50 0 0 50 0 50 -100 0 -100 0 0 50 0 50 100 0
100 0 0 50 0 50 50 0 50 0 0 95 0 95 50 0 50 0 0 -95z m1180 -45 l0 -50 50 0
50 0 0 -50 0 -50 -50 0 -50 0 0 -50 0 -50 -50 0 -50 0 0 50 0 50 -50 0 -50 0
0 50 0 50 50 0 50 0 0 50 0 50 50 0 50 0 0 -50z m-1870 -400 l0 -50 -50 0 -50
0 0 50 0 50 50 0 50 0 0 -50z m2260 -100 l0 -50 -45 0 -45 0 0 50 0 50 45 0
45 0 0 -50z m-490 -190 l0 -50 50 0 50 0 0 -50 0 -50 -50 0 -50 0 0 -50 0 -50
-50 0 -50 0 0 50 0 50 -50 0 -50 0 0 50 0 50 50 0 50 0 0 50 0 50 50 0 50 0 0
-50z m-2260 -200 l0 -50 -50 0 -50 0 0 50 0 50 50 0 50 0 0 -50z m1180 0 l0
-50 -50 0 -50 0 0 50 0 50 50 0 50 0 0 -50z m2260 -150 l0 -100 50 0 50 0 0
-45 0 -45 100 0 100 0 0 -50 0 -50 -100 0 -100 0 0 -50 0 -50 -50 0 -50 0 0
-100 0 -100 -50 0 -50 0 0 100 0 100 -45 0 -45 0 0 50 0 50 -100 0 -100 0 0
50 0 50 100 0 100 0 0 45 0 45 45 0 45 0 0 100 0 100 50 0 50 0 0 -100z
m-3440 -145 l0 -45 50 0 50 0 0 -50 0 -50 -50 0 -50 0 0 -50 0 -50 -50 0 -50
0 0 50 0 50 -50 0 -50 0 0 50 0 50 50 0 50 0 0 45 0 45 50 0 50 0 0 -45z
m-400 -395 l0 -50 -50 0 -50 0 0 50 0 50 50 0 50 0 0 -50z m790 0 l0 -50 -50
0 -50 0 0 50 0 50 50 0 50 0 0 -50z m2660 -100 l0 -50 -50 0 -50 0 0 50 0 50
50 0 50 0 0 -50z m790 -100 l0 -50 -50 0 -50 0 0 50 0 50 50 0 50 0 0 -50z
m-3940 -735 l0 -95 50 0 50 0 0 -50 0 -50 95 0 95 0 0 -50 0 -50 -95 0 -95 0
0 -50 0 -50 -50 0 -50 0 0 -100 0 -100 -50 0 -50 0 0 100 0 100 -50 0 -50 0 0
50 0 50 -100 0 -100 0 0 50 0 50 100 0 100 0 0 50 0 50 50 0 50 0 0 95 0 95
50 0 50 0 0 -95z m590 -45 l0 -50 -50 0 -50 0 0 50 0 50 50 0 50 0 0 -50z
m2460 -100 l0 -50 -50 0 -50 0 0 50 0 50 50 0 50 0 0 -50z m390 -100 l0 -50
-45 0 -45 0 0 50 0 50 45 0 45 0 0 -50z m400 0 l0 -50 -50 0 -50 0 0 50 0 50
50 0 50 0 0 -50z m-200 -100 l0 -50 50 0 50 0 0 -50 0 -50 -50 0 -50 0 0 -50
0 -50 -50 0 -50 0 0 50 0 50 -50 0 -50 0 0 50 0 50 50 0 50 0 0 50 0 50 50 0
50 0 0 -50z m-200 -295 l0 -45 -45 0 -45 0 0 45 0 45 45 0 45 0 0 -45z m400 0
l0 -45 -50 0 -50 0 0 45 0 45 50 0 50 0 0 -45z m-2560 -195 l0 -50 50 0 50 0
0 -50 0 -50 -50 0 -50 0 0 -50 0 -50 -50 0 -50 0 0 50 0 50 -50 0 -50 0 0 50
0 50 50 0 50 0 0 50 0 50 50 0 50 0 0 -50z m-1280 -100 l0 -50 -50 0 -50 0 0
50 0 50 50 0 50 0 0 -50z m2560 0 l0 -50 -50 0 -50 0 0 50 0 50 50 0 50 0 0
-50z m-200 -295 l0 -45 50 0 50 0 0 -50 0 -50 -50 0 -50 0 0 -50 0 -50 -50 0
-50 0 0 50 0 50 -50 0 -50 0 0 50 0 50 50 0 50 0 0 45 0 45 50 0 50 0 0 -45z
m-1570 -95 l0 -50 45 0 45 0 0 -50 0 -50 -45 0 -45 0 0 -50 0 -50 -50 0 -50 0
0 50 0 50 -50 0 -50 0 0 50 0 50 50 0 50 0 0 50 0 50 50 0 50 0 0 -50z m2160
-100 l0 -50 -50 0 -50 0 0 50 0 50 50 0 50 0 0 -50z m-1670 -200 l0 -50 -50 0
-50 0 0 50 0 50 50 0 50 0 0 -50z m880 -100 l0 -50 -45 0 -45 0 0 50 0 50 45
0 45 0 0 -50z"/>
<path d="M1970 4580 l0 -50 -50 0 -50 0 0 -50 0 -50 50 0 50 0 0 -50 0 -50 50
0 50 0 0 50 0 50 50 0 50 0 0 50 0 50 -50 0 -50 0 0 50 0 50 -50 0 -50 0 0
-50z m100 -100 l0 -50 -50 0 -50 0 0 50 0 50 50 0 50 0 0 -50z"/>
</g>
</svg>
